# This file uses centimeters as units for non-parametric coordinates.

mtllib arrow.mtl
g default
v -0.153651 0.000000 0.153651
v 0.153651 0.000000 0.153651
v -0.153651 6.947814 0.153651
v 0.153651 6.947814 0.153651
v -0.153651 6.947814 -0.153651
v 0.153651 6.947814 -0.153651
v -0.153651 0.000000 -0.153651
v 0.153651 0.000000 -0.153651
v 0.394853 6.947814 -0.394853
v 0.000000 6.947814 -0.558407
v -0.394853 6.947814 -0.394853
v -0.558407 6.947814 0.000000
v -0.394853 6.947814 0.394853
v 0.000000 6.947814 0.558407
v 0.394853 6.947814 0.394853
v 0.558407 6.947814 0.000000
v 0.000000 7.736814 0.000000
v 0.000000 6.947814 0.000000
vt 0.375000 0.000000
vt 0.625000 0.000000
vt 0.625000 0.250000
vt 0.375000 0.250000
vt 0.625000 0.500000
vt 0.375000 0.500000
vt 0.625000 0.750000
vt 0.375000 0.750000
vt 0.625000 1.000000
vt 0.375000 1.000000
vt 0.875000 0.000000
vt 0.875000 0.250000
vt 0.125000 0.000000
vt 0.125000 0.250000
vt 0.676777 0.073223
vt 0.500000 0.250000
vt 0.500000 0.000000
vt 0.250000 0.500000
vt 0.312500 0.500000
vt 0.500000 1.000000
vt 0.375000 0.500000
vt 0.437500 0.500000
vt 0.500000 0.500000
vt 0.562500 0.500000
vt 0.625000 0.500000
vt 0.687500 0.500000
vt 0.750000 0.500000
vt 0.323223 0.073223
vt 0.250000 0.250000
vt 0.676777 0.426777
vt 0.500000 0.500000
vt 0.323223 0.426777
vt 0.750000 0.250000
vn 0.000000 0.000000 1.000000
vn 0.000000 0.000000 1.000000
vn 0.000000 0.000000 1.000000
vn 0.000000 0.000000 1.000000
vn 0.000000 1.000000 0.000000
vn 0.000000 1.000000 0.000000
vn 0.000000 1.000000 0.000000
vn 0.000000 1.000000 0.000000
vn 0.000000 0.000000 -1.000000
vn 0.000000 0.000000 -1.000000
vn 0.000000 0.000000 -1.000000
vn 0.000000 0.000000 -1.000000
vn 0.000000 -1.000000 0.000000
vn 0.000000 -1.000000 0.000000
vn 0.000000 -1.000000 0.000000
vn 0.000000 -1.000000 0.000000
vn 1.000000 0.000000 0.000000
vn 1.000000 0.000000 0.000000
vn 1.000000 0.000000 0.000000
vn 1.000000 0.000000 0.000000
vn -1.000000 0.000000 0.000000
vn -1.000000 0.000000 0.000000
vn -1.000000 0.000000 0.000000
vn -1.000000 0.000000 0.000000
vn 0.000000 -1.000000 0.000000
vn 0.000000 -1.000000 0.000000
vn 0.000000 -1.000000 0.000000
vn 0.347408 0.419358 -0.838717
vn 0.347408 0.419358 -0.838717
vn 0.347408 0.419358 -0.838717
vn -0.347408 0.419358 -0.838717
vn -0.347408 0.419358 -0.838717
vn -0.347408 0.419358 -0.838717
vn -0.838717 0.419358 -0.347408
vn -0.838717 0.419358 -0.347408
vn -0.838717 0.419358 -0.347408
vn -0.838717 0.419358 0.347408
vn -0.838717 0.419358 0.347408
vn -0.838717 0.419358 0.347408
vn -0.347408 0.419358 0.838717
vn -0.347408 0.419358 0.838717
vn -0.347408 0.419358 0.838717
vn 0.347408 0.419358 0.838717
vn 0.347408 0.419358 0.838717
vn 0.347408 0.419358 0.838717
vn 0.838717 0.419359 0.347408
vn 0.838717 0.419359 0.347408
vn 0.838717 0.419359 0.347408
vn 0.838717 0.419359 -0.347408
vn 0.838717 0.419358 -0.347408
vn 0.838717 0.419358 -0.347408
vn 0.000000 -1.000000 0.000000
vn 0.000000 -1.000000 0.000000
vn 0.000000 -1.000000 0.000000
vn 0.000000 -1.000000 0.000000
vn 0.000000 -1.000000 0.000000
vn 0.000000 -1.000000 0.000000
vn 0.000000 -1.000000 0.000000
vn 0.000000 -1.000000 0.000000
vn 0.000000 -1.000000 0.000000
vn 0.000000 -1.000000 0.000000
vn 0.000000 -1.000000 0.000000
vn 0.000000 -1.000000 0.000000
vn 0.000000 -1.000000 0.000000
vn 0.000000 -1.000000 0.000000
vn 0.000000 -1.000000 0.000000
vn 0.000000 -1.000000 0.000000
vn 0.000000 -1.000000 0.000000
vn 0.000000 -1.000000 0.000000
vn 0.000000 -1.000000 0.000000
vn 0.000000 -1.000000 0.000000
vn 0.000000 -1.000000 0.000000
s off
g arrow
usemtl initialShadingGroup
f 1/1/1 2/2/2 4/3/3 3/4/4
f 3/4/5 4/3/6 6/5/7 5/6/8
f 5/6/9 6/5/10 8/7/11 7/8/12
f 7/8/13 8/7/14 2/9/15 1/10/16
f 2/2/17 8/11/18 6/12/19 4/3/20
f 7/13/21 1/1/22 3/4/23 5/14/24
f 9/15/25 18/16/26 10/17/27
f 9/18/28 10/19/29 17/20/30
f 10/19/31 11/21/32 17/20/33
f 11/21/34 12/22/35 17/20/36
f 12/22/37 13/23/38 17/20/39
f 13/23/40 14/24/41 17/20/42
f 14/24/43 15/25/44 17/20/45
f 15/25/46 16/26/47 17/20/48
f 16/26/49 9/27/50 17/20/51
f 11/28/52 18/16/53 12/29/54
f 18/16/55 15/30/56 14/31/57
f 12/29/58 18/16/59 13/32/60
f 10/17/61 18/16/62 11/28/63
f 18/16/64 16/33/65 15/30/66
f 9/15/67 16/33/68 18/16/69
f 13/32/70 18/16/71 14/31/72
