# This file uses centimeters as units for non-parametric coordinates.

g default
v -100.000000 -30.000000 65.001503
v -100.000000 -28.858307 70.741180
v -100.000000 -25.607040 75.607040
v -100.000000 -20.741177 78.858307
v -100.000000 -15.001500 80.000000
v 100.000000 -30.000000 65.001503
v 100.000000 -15.001500 80.000000
v 100.000000 -20.741177 78.858307
v 100.000000 -25.607040 75.607040
v 100.000000 -28.858307 70.741180
v -100.000000 30.000000 65.001503
v -100.000000 15.001499 80.000000
v -100.000000 20.741177 78.858307
v -100.000000 25.607040 75.607040
v -100.000000 28.858307 70.741180
v 100.000000 30.000000 65.001503
v 100.000000 28.858307 70.741180
v 100.000000 25.607040 75.607040
v 100.000000 20.741177 78.858307
v 100.000000 15.001499 80.000000
v -100.000000 15.001499 -80.000000
v -100.000000 30.000000 -65.001503
v -100.000000 28.858307 -70.741180
v -100.000000 25.607040 -75.607040
v -100.000000 20.741177 -78.858307
v 100.000000 15.001499 -80.000000
v 100.000000 20.741177 -78.858307
v 100.000000 25.607040 -75.607040
v 100.000000 28.858307 -70.741180
v 100.000000 30.000000 -65.001503
v -100.000000 -30.000000 -65.001503
v -100.000000 -15.001500 -80.000000
v -100.000000 -20.741177 -78.858307
v -100.000000 -25.607040 -75.607040
v -100.000000 -28.858307 -70.741180
v 100.000000 -30.000000 -65.001503
v 100.000000 -28.858307 -70.741180
v 100.000000 -25.607040 -75.607040
v 100.000000 -20.741177 -78.858307
v 100.000000 -15.001500 -80.000000
v -100.000000 -15.489226 84.951965
v 100.000000 -15.489226 84.951965
v 100.000000 15.489223 84.951965
v -100.000000 15.489223 84.951965
v -100.000000 34.951965 65.489227
v 100.000000 34.951965 65.489227
v 100.000000 34.951965 -65.489227
v -100.000000 34.951965 -65.489227
v -100.000000 15.489223 -84.951965
v 100.000000 15.489223 -84.951965
v 100.000000 -15.489226 -84.951965
v -100.000000 -15.489226 -84.951965
v -100.000000 -34.951963 -65.489227
v 100.000000 -34.951963 -65.489227
v 100.000000 -34.951963 65.489227
v -100.000000 -34.951963 65.489227
v -100.000000 -22.617828 83.388947
v 100.000000 -22.617828 83.388947
v -100.000000 -29.074639 79.074638
v 100.000000 -29.074639 79.074638
v -100.000000 -33.388943 72.617828
v 100.000000 -33.388943 72.617828
v -100.000000 33.388943 72.617828
v 100.000000 33.388943 72.617828
v -100.000000 29.074638 79.074638
v 100.000000 29.074638 79.074638
v -100.000000 22.617828 83.388947
v 100.000000 22.617828 83.388947
v -100.000000 22.617828 -83.388947
v 100.000000 22.617828 -83.388947
v -100.000000 29.074638 -79.074638
v 100.000000 29.074638 -79.074638
v -100.000000 33.388943 -72.617828
v 100.000000 33.388943 -72.617828
v -100.000000 -33.388943 -72.617828
v 100.000000 -33.388943 -72.617828
v -100.000000 -29.074639 -79.074638
v 100.000000 -29.074639 -79.074638
v -100.000000 -22.617828 -83.388947
v 100.000000 -22.617828 -83.388947
vt 1.000000 0.032169
vt 0.055225 0.032169
vt 0.055225 0.103814
vt 1.000000 0.103814
vt 1.000000 0.166552
vt 0.055225 0.166552
vt 0.055225 0.471588
vt 1.000000 0.471588
vt 1.000000 0.532185
vt 0.055225 0.532185
vt 0.055225 0.602908
vt 1.000000 0.602908
vt 1.000000 0.664976
vt 0.055225 0.664976
vt 0.055225 0.969989
vt 1.000000 0.969989
vt 1.000000 0.017746
vt 0.055225 0.017746
vt 1.000000 0.000000
vt 0.055225 0.000000
vt 1.000000 1.000000
vt 1.000000 0.985167
vt 0.055225 0.985167
vt 0.055225 1.000000
vt 1.000000 0.148996
vt 0.055225 0.148996
vt 1.000000 0.133725
vt 0.055225 0.133725
vt 1.000000 0.118501
vt 0.055225 0.118501
vt 1.000000 0.517037
vt 0.055225 0.517037
vt 1.000000 0.501802
vt 0.055225 0.501802
vt 1.000000 0.486739
vt 0.055225 0.486739
vt 1.000000 0.647924
vt 0.055225 0.647924
vt 1.000000 0.632656
vt 0.055225 0.632656
vt 1.000000 0.617431
vt 0.055225 0.617431
vt 1.000000 0.032169
vt 0.055225 0.103814
vt 1.000000 0.166552
vt 0.055225 0.471588
vt 1.000000 0.532185
vt 0.055225 0.602908
vt 1.000000 0.664976
vt 0.055225 0.969989
vt 1.000000 0.017746
vt 1.000000 0.000000
vt 1.000000 0.985167
vt 1.000000 1.000000
vt 1.000000 0.148996
vt 1.000000 0.133725
vt 1.000000 0.118501
vt 1.000000 0.517037
vt 1.000000 0.501802
vt 1.000000 0.486739
vt 1.000000 0.647924
vt 1.000000 0.632656
vt 1.000000 0.617431
vt 0.055225 0.617431
vt 0.055225 0.632656
vt 0.055225 0.647924
vt 0.055225 0.664976
vt 0.055225 0.486739
vt 0.055225 0.501802
vt 0.055225 0.517037
vt 0.055225 0.532185
vt 0.055225 0.118501
vt 0.055225 0.133725
vt 0.055225 0.148996
vt 0.055225 0.166552
vt 0.055225 0.985167
vt 0.055225 0.000000
vt 0.055225 1.000000
vt 0.055225 0.017746
vt 0.055225 0.032169
vt 1.000000 0.602908
vt 1.000000 0.471588
vt 1.000000 0.103814
vt 1.000000 0.969989
vt 0.000789 0.103814
vt 0.000789 0.032169
vt 0.000789 0.118501
vt 0.000789 0.017746
vt 0.000789 0.133725
vt 0.000789 -0.000000
vt 0.000789 0.148996
vt 0.000789 0.985167
vt 0.000789 0.166552
vt 0.000789 0.969989
vt 0.000789 0.471588
vt 0.000789 0.664976
vt 0.000789 0.486739
vt 0.000789 0.647924
vt 0.000789 0.501802
vt 0.000789 0.632656
vt 0.000789 0.517037
vt 0.000789 0.617431
vt 0.000789 0.532185
vt 0.000789 0.602908
vt -0.000789 0.103814
vt -0.000789 0.032169
vt -0.000789 0.017746
vt -0.000789 0.118501
vt -0.000789 1.000000
vt -0.000789 0.133725
vt -0.000789 0.985167
vt -0.000789 0.148996
vt -0.000789 0.969989
vt -0.000789 0.166552
vt -0.000789 0.664976
vt -0.000789 0.471588
vt -0.000789 0.647924
vt -0.000789 0.486739
vt -0.000789 0.632656
vt -0.000789 0.501802
vt -0.000789 0.617431
vt -0.000789 0.517037
vt -0.000789 0.602908
vt -0.000789 0.532185
vt 0.000789 1.000000
vt -0.000789 0.000000
vt 0.055225 0.617431
vt 0.055225 0.602908
vt 0.055225 0.632656
vt 0.055225 0.647924
vt 0.055225 0.664976
vt 0.055225 0.486739
vt 0.055225 0.471588
vt 0.055225 0.501802
vt 0.055225 0.517037
vt 0.055225 0.532185
vt 0.055225 0.118501
vt 0.055225 0.103814
vt 0.055225 0.133725
vt 0.055225 0.148996
vt 0.055225 0.166552
vt 0.055225 0.985167
vt 0.055225 0.969989
vt 0.055225 0.000000
vt 0.055225 1.000000
vt 0.055225 0.017746
vt 0.055225 0.032169
vt 0.055225 0.602908
vt 0.055225 0.617431
vt 0.055225 0.632656
vt 0.055225 0.647924
vt 0.055225 0.664976
vt 0.055225 0.471588
vt 0.055225 0.486739
vt 0.055225 0.501802
vt 0.055225 0.517037
vt 0.055225 0.532185
vt 0.055225 0.103814
vt 0.055225 0.118501
vt 0.055225 0.133725
vt 0.055225 0.148996
vt 0.055225 0.166552
vt 0.055225 0.969989
vt 0.055225 0.985167
vt 0.055225 0.000000
vt 0.055225 1.000000
vt 0.055225 0.017746
vt 0.055225 0.032169
vn 0.000000 -0.040982 0.999160
vn 0.000000 -0.040982 0.999160
vn 0.000000 0.040982 0.999160
vn 0.000000 0.040982 0.999160
vn 0.000000 0.999936 0.011317
vn 0.000000 0.999936 0.011317
vn 0.000000 0.999936 -0.011317
vn 0.000000 0.999936 -0.011317
vn 0.000000 0.040982 -0.999160
vn 0.000000 0.040982 -0.999160
vn 0.000000 -0.040982 -0.999160
vn 0.000000 -0.040982 -0.999160
vn 0.000000 -0.999936 -0.011317
vn 0.000000 -0.999936 -0.011317
vn 0.000000 -0.999936 0.011317
vn 0.000000 -0.999936 0.011317
vn 0.000000 -0.397057 0.917794
vn 0.000000 -0.397057 0.917794
vn 0.000000 -0.707107 0.707107
vn 0.000000 -0.707107 0.707107
vn 0.000000 -0.917794 0.397056
vn 0.000000 -0.917794 0.397056
vn 0.000000 0.917794 0.397056
vn 0.000000 0.917794 0.397056
vn 0.000000 0.707107 0.707107
vn 0.000000 0.707107 0.707107
vn 0.000000 0.397056 0.917794
vn 0.000000 0.397056 0.917794
vn 0.000000 0.397056 -0.917794
vn 0.000000 0.397056 -0.917794
vn 0.000000 0.707107 -0.707107
vn 0.000000 0.707107 -0.707107
vn 0.000000 0.917794 -0.397056
vn 0.000000 0.917794 -0.397056
vn 0.000000 -0.917794 -0.397056
vn 0.000000 -0.917794 -0.397056
vn 0.000000 -0.707107 -0.707107
vn 0.000000 -0.707107 -0.707107
vn 0.000000 -0.397057 -0.917794
vn 0.000000 -0.397057 -0.917794
vn 0.000000 0.031926 -0.999490
vn 0.000000 -0.031926 -0.999490
vn 0.000000 -0.031926 -0.999490
vn 0.000000 0.031926 -0.999490
vn 0.000000 -0.999965 -0.008410
vn 0.000000 -0.999965 0.008410
vn 0.000000 -0.999965 0.008410
vn 0.000000 -0.999965 -0.008410
vn 0.000000 -0.031926 0.999490
vn 0.000000 0.031926 0.999490
vn 0.000000 0.031926 0.999490
vn 0.000000 -0.031926 0.999490
vn 0.000000 0.999965 0.008410
vn 0.000000 0.999965 -0.008410
vn 0.000000 0.999965 -0.008410
vn 0.000000 0.999965 0.008410
vn 0.000000 0.382684 -0.923880
vn 0.000000 0.382684 -0.923880
vn 0.000000 0.707107 -0.707107
vn 0.000000 0.707107 -0.707107
vn 0.000000 0.923879 -0.382684
vn 0.000000 0.923879 -0.382684
vn 0.000000 -0.923880 -0.382684
vn 0.000000 -0.923880 -0.382684
vn 0.000000 -0.707107 -0.707107
vn 0.000000 -0.707107 -0.707107
vn 0.000000 -0.382683 -0.923880
vn 0.000000 -0.382683 -0.923880
vn 0.000000 -0.382683 0.923880
vn 0.000000 -0.382683 0.923880
vn 0.000000 -0.707107 0.707107
vn 0.000000 -0.707107 0.707107
vn 0.000000 -0.923880 0.382684
vn 0.000000 -0.923880 0.382684
vn 0.000000 0.923879 0.382684
vn 0.000000 0.923879 0.382684
vn 0.000000 0.707107 0.707107
vn 0.000000 0.707107 0.707107
vn 0.000000 0.382684 0.923880
vn 0.000000 0.382684 0.923880
vn 1.000000 0.000000 0.000000
vn 1.000000 0.000000 0.000000
vn 1.000000 0.000000 0.000000
vn 1.000000 0.000000 0.000000
vn -1.000000 0.000000 0.000000
vn -1.000000 0.000000 0.000000
vn -1.000000 0.000000 0.000000
vn -1.000000 0.000000 0.000000
vn 1.000000 -0.000000 0.000000
vn 1.000000 0.000000 0.000000
vn 1.000000 -0.000000 0.000000
vn 1.000000 -0.000000 0.000000
vn -1.000000 -0.000000 0.000000
vn -1.000000 0.000000 0.000000
vn -1.000000 -0.000000 0.000000
vn -1.000000 -0.000000 0.000000
vn 1.000000 0.000000 0.000000
vn 1.000000 0.000000 0.000000
vn 1.000000 0.000000 0.000000
vn 1.000000 0.000000 0.000000
vn -1.000000 0.000000 0.000000
vn -1.000000 0.000000 0.000000
vn -1.000000 0.000000 0.000000
vn -1.000000 0.000000 0.000000
vn 1.000000 0.000000 0.000000
vn 1.000000 -0.000000 0.000000
vn 1.000000 0.000000 0.000000
vn 1.000000 0.000000 0.000000
vn -1.000000 0.000000 0.000000
vn -1.000000 -0.000000 0.000000
vn -1.000000 0.000000 0.000000
vn -1.000000 0.000000 0.000000
vn -1.000000 0.000000 0.000000
vn -1.000000 0.000000 0.000000
vn 1.000000 0.000000 0.000000
vn 1.000000 0.000000 0.000000
vn -1.000000 0.000000 0.000000
vn -1.000000 0.000000 0.000000
vn 1.000000 0.000000 0.000000
vn 1.000000 0.000000 0.000000
vn -1.000000 0.000000 0.000000
vn -1.000000 0.000000 0.000000
vn 1.000000 -0.000000 0.000000
vn 1.000000 -0.000000 0.000000
vn -1.000000 0.000000 0.000000
vn -1.000000 0.000000 0.000000
vn 1.000000 -0.000000 0.000000
vn 1.000000 -0.000000 0.000000
vn -1.000000 0.000000 0.000000
vn -1.000000 0.000000 0.000000
vn 1.000000 -0.000000 0.000000
vn 1.000000 -0.000000 0.000000
vn -1.000000 0.000000 0.000000
vn -1.000000 0.000000 0.000000
vn 1.000000 0.000000 0.000000
vn 1.000000 0.000000 0.000000
vn -1.000000 0.000000 0.000000
vn -1.000000 0.000000 0.000000
vn 1.000000 0.000000 0.000000
vn 1.000000 0.000000 0.000000
vn -1.000000 -0.000000 0.000000
vn -1.000000 -0.000000 0.000000
vn 1.000000 0.000000 0.000000
vn 1.000000 0.000000 0.000000
vn -1.000000 -0.000000 0.000000
vn -1.000000 -0.000000 0.000000
vn 1.000000 0.000000 0.000000
vn 1.000000 0.000000 0.000000
vn -1.000000 -0.000000 0.000000
vn -1.000000 -0.000000 0.000000
vn 1.000000 0.000000 0.000000
vn 1.000000 0.000000 0.000000
vn -1.000000 0.000000 0.000000
vn -1.000000 0.000000 0.000000
vn 1.000000 0.000000 0.000000
vn 1.000000 0.000000 0.000000
vn -1.000000 0.000000 0.000000
vn -1.000000 0.000000 0.000000
vn 1.000000 0.000000 0.000000
vn 1.000000 0.000000 0.000000
s 1
g holder:pCube1
f 41/147/1 42/43/2 43/83/3 44/44/4
f 45/141/5 46/45/6 47/82/7 48/46/8
f 49/136/9 50/47/10 51/81/11 52/48/12
f 53/131/13 54/49/14 55/84/15 56/50/16
f 41/147/1 57/146/17 58/51/18 42/43/2
f 57/146/17 59/144/19 60/52/20 58/51/18
f 59/145/19 61/142/21 62/53/22 60/54/20
f 61/142/21 56/50/16 55/84/15 62/53/22
f 45/141/5 63/140/23 64/55/24 46/45/6
f 63/140/23 65/139/25 66/56/26 64/55/24
f 65/139/25 67/137/27 68/57/28 66/56/26
f 67/137/27 44/44/4 43/83/3 68/57/28
f 49/136/9 69/135/29 70/58/30 50/47/10
f 69/135/29 71/134/31 72/59/32 70/58/30
f 71/134/31 73/132/33 74/60/34 72/59/32
f 73/132/33 48/46/8 47/82/7 74/60/34
f 53/131/13 75/130/35 76/61/36 54/49/14
f 75/130/35 77/129/37 78/62/38 76/61/36
f 77/129/37 79/127/39 80/63/40 78/62/38
f 79/127/39 52/48/12 51/81/11 80/63/40
s 5
f 5/1/41 12/4/42 20/158/43 7/168/44
f 11/5/45 22/8/46 30/153/47 16/162/48
f 21/9/49 32/12/50 40/148/51 26/157/52
f 31/13/53 1/16/54 6/163/55 36/152/56
f 5/1/41 7/168/44 8/167/57 4/17/58
f 4/17/58 8/167/57 9/165/59 3/19/60
f 3/21/60 9/24/59 10/164/61 2/22/62
f 2/22/62 10/164/61 6/163/55 1/16/54
f 11/5/45 16/162/48 17/161/63 15/25/64
f 15/25/64 17/161/63 18/160/65 14/27/66
f 14/27/66 18/160/65 19/159/67 13/29/68
f 13/29/68 19/159/67 20/158/43 12/4/42
f 21/9/49 26/157/52 27/156/69 25/31/70
f 25/31/70 27/156/69 28/155/71 24/33/72
f 24/33/72 28/155/71 29/154/73 23/35/74
f 23/35/74 29/154/73 30/153/47 22/8/46
f 31/13/53 36/152/56 37/151/75 35/37/76
f 35/37/76 37/151/75 38/150/77 34/39/78
f 34/39/78 38/150/77 39/149/79 33/41/80
f 33/41/80 39/149/79 40/148/51 32/12/50
s 9
f 7/2/81 20/3/82 43/85/83 42/86/84
s 10
f 12/105/85 5/106/86 41/80/87 44/138/88
s 9
f 16/6/89 30/7/90 47/95/91 46/93/92
s 10
f 22/116/93 11/114/94 45/75/95 48/133/96
s 9
f 26/10/97 40/11/98 51/104/99 50/103/100
s 10
f 32/123/101 21/124/102 49/71/103 52/128/104
s 9
f 36/14/105 6/15/106 55/94/107 54/96/108
s 10
f 1/113/109 31/115/110 53/67/111 56/143/112
f 5/106/86 4/107/113 57/79/114 41/80/87
s 9
f 8/18/115 7/2/81 42/86/84 58/88/116
s 10
f 4/107/113 3/126/117 59/77/118 57/79/114
s 9
f 9/20/119 8/18/115 58/88/116 60/90/120
s 10
f 3/109/117 2/111/121 61/76/122 59/78/118
s 9
f 10/23/123 9/166/119 60/125/120 62/92/124
s 10
f 2/111/121 1/113/109 56/143/112 61/76/122
s 9
f 6/15/106 10/23/123 62/92/124 55/94/107
s 10
f 11/114/94 15/112/125 63/74/126 45/75/95
s 9
f 17/26/127 16/6/89 46/93/92 64/91/128
s 10
f 15/112/125 14/110/129 65/73/130 63/74/126
s 9
f 18/28/131 17/26/127 64/91/128 66/89/132
s 10
f 14/110/129 13/108/133 67/72/134 65/73/130
s 9
f 19/30/135 18/28/131 66/89/132 68/87/136
s 10
f 13/108/133 12/105/85 44/138/88 67/72/134
s 9
f 20/3/82 19/30/135 68/87/136 43/85/83
s 10
f 21/124/102 25/122/137 69/70/138 49/71/103
s 9
f 27/32/139 26/10/97 50/103/100 70/101/140
s 10
f 25/122/137 24/120/141 71/69/142 69/70/138
s 9
f 28/34/143 27/32/139 70/101/140 72/99/144
s 10
f 24/120/141 23/118/145 73/68/146 71/69/142
s 9
f 29/36/147 28/34/143 72/99/144 74/97/148
s 10
f 23/118/145 22/116/93 48/133/96 73/68/146
s 9
f 30/7/90 29/36/147 74/97/148 47/95/91
s 10
f 31/115/110 35/117/149 75/66/150 53/67/111
s 9
f 37/38/151 36/14/105 54/96/108 76/98/152
s 10
f 35/117/149 34/119/153 77/65/154 75/66/150
s 9
f 38/40/155 37/38/151 76/98/152 78/100/156
s 10
f 34/119/153 33/121/157 79/64/158 77/65/154
s 9
f 39/42/159 38/40/155 78/100/156 80/102/160
s 10
f 33/121/157 32/123/101 52/128/104 79/64/158
s 9
f 40/11/98 39/42/159 80/102/160 51/104/99
